<svg id="Layer_1" enable-background="new 0 0 60 60" height="512" viewBox="0 0 60 60" width="512" xmlns="http://www.w3.org/2000/svg"><path d="m1.03 16h6c.552 0 1-.447 1-1v-7h7c.552 0 1-.447 1-1v-6c0-.553-.448-1-1-1h-14c-.552 0-1 .447-1 1v14c0 .553.448 1 1 1z"/><path d="m15.03 52h-7v-7c0-.553-.448-1-1-1h-6c-.552 0-1 .447-1 1v14c0 .553.448 1 1 1h14c.552 0 1-.447 1-1v-6c0-.553-.448-1-1-1z"/><path d="m59.03 0h-14c-.552 0-1 .447-1 1v6c0 .553.448 1 1 1h7v7c0 .553.448 1 1 1h6c.552 0 1-.447 1-1v-14c0-.553-.448-1-1-1z"/><path d="m59.03 44h-6c-.552 0-1 .447-1 1v7h-7c-.552 0-1 .447-1 1v6c0 .553.448 1 1 1h14c.552 0 1-.447 1-1v-14c0-.553-.448-1-1-1z"/><path d="m59.03 29h-12v-15c0-.553-.448-1-1-1h-32c-.552 0-1 .447-1 1v15h-12c-.552 0-1 .447-1 1s.448 1 1 1h12v15c0 .553.448 1 1 1h32c.552 0 1-.447 1-1v-15h12c.552 0 1-.447 1-1s-.448-1-1-1zm-14 16h-30v-14h30z"/></svg>