<?xml version="1.0"?>
<svg xmlns="http://www.w3.org/2000/svg" xmlns:xlink="http://www.w3.org/1999/xlink" version="1.1" id="Capa_1" x="0px" y="0px" width="512px" height="512px" viewBox="0 0 80 80" style="enable-background:new 0 0 80 80;" xml:space="preserve"><g><link xmlns="" type="text/css" id="dark-mode" rel="stylesheet" class="active-path" style=""/><style xmlns="" type="text/css" id="dark-mode-custom-style" class="active-path"/><g>
	<g>
		<path d="M45.524,55.723c3.79,0,7.397-0.865,10.433-2.5c0.148-0.08,0.312-0.121,0.475-0.121c0.183,0,0.365,0.051,0.524,0.149    l4.945,3.047l-1.728-5.666c-0.099-0.321-0.029-0.669,0.185-0.928c1.485-1.802,2.271-3.833,2.271-5.878    c0-6.411-7.227-11.626-16.451-11.871l-0.308-0.012c-0.114-0.006-0.229-0.012-0.347-0.012c-9.432,0-17.106,5.336-17.106,11.895    c0,2.011,0.758,4.011,2.191,5.785C33.654,53.381,39.369,55.723,45.524,55.723z M55.028,41.252c1.921,0,3.485,1.562,3.485,3.482    c0,1.922-1.563,3.484-3.485,3.484c-1.921,0-3.483-1.562-3.483-3.484C51.545,42.814,53.107,41.252,55.028,41.252z M45.522,41.252    c1.921,0,3.485,1.562,3.485,3.482c0,1.922-1.563,3.484-3.485,3.484c-1.921,0-3.483-1.562-3.483-3.484    C42.039,42.814,43.602,41.252,45.522,41.252z M36.018,41.252c1.921,0,3.485,1.562,3.485,3.482c0,1.922-1.563,3.484-3.485,3.484    c-1.922,0-3.484-1.562-3.484-3.484C32.534,42.814,34.097,41.252,36.018,41.252z" data-original="#000000" class="active-path" fill="#52B674"/>
		<circle cx="36.018" cy="44.735" r="1.484" data-original="#000000" class="active-path" fill="#52B674"/>
		<circle cx="55.028" cy="44.735" r="1.484" data-original="#000000" class="active-path" fill="#52B674"/>
		<path d="M40,80c22.092,0,40-17.909,40-40C80,17.909,62.092,0,40,0C17.909,0,0,17.909,0,40C0,62.091,17.908,80,40,80z     M11.402,37.366c0-7.662,8.571-13.896,19.106-13.896c6.563,0,12.707,2.489,16.179,6.515c10.097,0.441,17.943,6.452,17.943,13.843    c0,2.35-0.824,4.664-2.391,6.724l2.348,7.696c0.12,0.396-0.017,0.828-0.347,1.083c-0.179,0.139-0.396,0.208-0.61,0.208    c-0.182,0-0.363-0.049-0.524-0.148l-6.716-4.14c-3.215,1.619-6.957,2.472-10.866,2.472c-6.555,0-12.692-2.486-16.167-6.507    c-3.503-0.151-6.841-0.979-9.714-2.426l-6.715,4.138c-0.162,0.1-0.344,0.148-0.525,0.148c-0.216,0-0.432-0.069-0.611-0.207    c-0.329-0.254-0.467-0.686-0.346-1.083l2.346-7.696C12.226,42.029,11.402,39.715,11.402,37.366z" data-original="#000000" class="active-path" fill="#52B674"/>
		<circle cx="45.522" cy="44.735" r="1.484" data-original="#000000" class="active-path" fill="#52B674"/>
	</g>
</g></g> </svg>
