<?xml version="1.0"?>
<svg xmlns="http://www.w3.org/2000/svg" xmlns:xlink="http://www.w3.org/1999/xlink" version="1.1" id="Capa_1" x="0px" y="0px" width="512px" height="512px" viewBox="0 0 80 80" style="enable-background:new 0 0 80 80;" xml:space="preserve" class=""><g><link xmlns="" type="text/css" id="dark-mode" rel="stylesheet" class="active-path" style=""/><style xmlns="" type="text/css" id="dark-mode-custom-style" class="active-path"/><g>
	<g>
		<path d="M13.492,30.233l5.928,5.928c5.305-4.954,12.181-7.67,19.476-7.67c7.293,0,14.172,2.717,19.478,7.671l5.928-5.929    c-6.89-6.535-15.872-10.122-25.404-10.122C29.363,20.112,20.381,23.698,13.492,30.233z" data-original="#000000" class="active-path" fill="#15305A"/>
		<path d="M26.79,43.531l3.654,3.653c2.353-2.021,5.317-3.124,8.452-3.124c3.133,0,6.1,1.104,8.452,3.124l3.654-3.655    c-3.332-2.99-7.594-4.626-12.106-4.626S30.122,40.539,26.79,43.531z" data-original="#000000" class="active-path" fill="#15305A"/>
		<path d="M40,0C17.908,0,0,17.909,0,40c0,22.091,17.908,40,40,40s40-17.909,40-40C80,17.909,62.092,0,40,0z M43.398,61.555    c-1.201,1.203-2.801,1.865-4.502,1.865s-3.301-0.663-4.504-1.865c-2.482-2.482-2.482-6.523,0-9.006    c1.202-1.203,2.802-1.866,4.503-1.866s3.3,0.663,4.503,1.866c1.203,1.202,1.865,2.801,1.865,4.502S44.604,60.352,43.398,61.555z     M53.145,44.218l-5.062,5.062c-0.195,0.195-0.451,0.293-0.707,0.293s-0.512-0.098-0.707-0.293    c-2.076-2.074-4.836-3.218-7.771-3.218c-2.937,0-5.696,1.144-7.771,3.218c-0.391,0.392-1.023,0.392-1.414,0l-5.062-5.061    c-0.188-0.188-0.293-0.441-0.293-0.707s0.105-0.52,0.293-0.707c3.806-3.806,8.865-5.902,14.247-5.902    c5.382,0,10.441,2.096,14.248,5.901C53.534,43.195,53.534,43.826,53.145,44.218z M66.432,30.931l-7.34,7.341    c-0.188,0.188-0.441,0.293-0.707,0.293s-0.52-0.105-0.707-0.293c-5.018-5.017-11.688-7.78-18.782-7.78s-13.764,2.763-18.78,7.779    c-0.375,0.375-1.039,0.375-1.414,0l-7.34-7.34c-0.391-0.391-0.391-1.023,0-1.414c7.354-7.355,17.134-11.405,27.535-11.405    s20.18,4.05,27.535,11.405C66.822,29.907,66.822,30.54,66.432,30.931z" data-original="#000000" class="active-path" fill="#15305A"/>
		<path d="M38.896,52.683c-1.167,0-2.264,0.455-3.089,1.28c-1.703,1.703-1.702,4.474,0,6.178c0.825,0.825,1.923,1.279,3.09,1.279    s2.264-0.455,3.089-1.279c0.824-0.824,1.279-1.922,1.279-3.089s-0.455-2.265-1.279-3.088    C41.16,53.138,40.063,52.683,38.896,52.683z" data-original="#000000" class="active-path" fill="#15305A"/>
	</g>
</g></g> </svg>
